<?xml version="1.0" encoding="utf-8"?>
<!-- Generator: Adobe Illustrator 17.0.0, SVG Export Plug-In . SVG Version: 6.00 Build 0)  -->
<!DOCTYPE svg PUBLIC "-//W3C//DTD SVG 1.1//EN" "http://www.w3.org/Graphics/SVG/1.1/DTD/svg11.dtd">
<svg version="1.1" id="Layer_1" xmlns="http://www.w3.org/2000/svg" xmlns:xlink="http://www.w3.org/1999/xlink" x="0px" y="0px"
	 width="800px" height="600px" viewBox="0 0 800 600" enable-background="new 0 0 800 600" xml:space="preserve">
<g>
	<g>
		<linearGradient id="SVGID_1_" gradientUnits="userSpaceOnUse" x1="186.6139" y1="367.2585" x2="177.801" y2="539.1075">
			<stop  offset="0.2802" style="stop-color:#FFCB03"/>
			<stop  offset="0.6868" style="stop-color:#EF6527"/>
		</linearGradient>
		<path fill="url(#SVGID_1_)" d="M177.981,438.378l-13.034,0.349c-5.073,0.174-7.172,0.608-8.485,2.523
			c-0.874,1.307-1.312,2.35-1.486,3.046c-0.176,0.698-0.439,1.044-0.963,1.044c-0.612,0-0.788-0.435-0.788-1.392
			c0-1.392,1.662-9.313,1.837-10.009c0.262-1.133,0.525-1.655,1.05-1.655c0.699,0,1.573,0.871,3.761,1.045
			c2.536,0.262,5.861,0.435,8.747,0.435h34.64c2.799,0,4.724-0.261,6.036-0.435c1.311-0.26,2.012-0.434,2.361-0.434
			c0.612,0,0.701,0.521,0.701,1.827c0,1.828-0.263,7.834-0.263,10.096c-0.088,0.869-0.262,1.394-0.788,1.394
			c-0.7,0-0.874-0.436-0.963-1.741l-0.087-0.957c-0.174-2.264-2.536-4.701-10.322-4.874l-11.021-0.262v35.685
			c0,8.008,0,14.882,0.437,18.626c0.263,2.438,0.787,4.352,3.412,4.698c1.224,0.175,3.149,0.349,4.462,0.349
			c0.961,0,1.399,0.263,1.399,0.696c0,0.61-0.7,0.87-1.662,0.87c-5.774,0-11.285-0.26-13.733-0.26c-2.013,0-7.523,0.26-11.022,0.26
			c-1.137,0-1.749-0.26-1.749-0.87c0-0.434,0.35-0.696,1.399-0.696c1.313,0,2.361-0.174,3.149-0.349
			c1.749-0.347,2.274-2.261,2.537-4.787c0.438-3.655,0.438-10.529,0.438-18.537V438.378z"/>
		<linearGradient id="SVGID_2_" gradientUnits="userSpaceOnUse" x1="259.0201" y1="370.972" x2="250.2073" y2="542.8204">
			<stop  offset="0.2802" style="stop-color:#FFCB03"/>
			<stop  offset="0.6868" style="stop-color:#EF6527"/>
		</linearGradient>
		<path fill="url(#SVGID_2_)" d="M228.454,458.744c0-13.23,0-15.665-0.174-18.452c-0.176-2.959-0.875-4.352-3.762-4.961
			c-0.699-0.175-2.186-0.26-3.411-0.26c-0.961,0-1.487-0.175-1.487-0.784c0-0.608,0.612-0.783,1.924-0.783
			c4.636,0,10.148,0.261,11.983,0.261c2.975,0,9.623-0.261,12.334-0.261c5.511,0,11.372,0.523,16.096,3.742
			c2.449,1.654,5.948,6.092,5.948,11.923c0,6.442-2.712,12.361-11.546,19.499c7.786,9.747,13.82,17.494,18.982,22.89
			c4.898,5.047,8.484,5.656,9.797,5.919c0.961,0.174,1.749,0.26,2.448,0.26c0.701,0,1.049,0.263,1.049,0.696
			c0,0.695-0.612,0.87-1.662,0.87h-8.309c-4.899,0-7.086-0.435-9.36-1.652c-3.762-2.004-7.085-6.093-11.985-12.795
			c-3.498-4.787-7.521-10.707-8.66-12.01c-0.437-0.522-0.961-0.611-1.573-0.611l-7.61-0.173c-0.438,0-0.701,0.173-0.701,0.695v1.221
			c0,8.094,0,14.968,0.438,18.623c0.262,2.526,0.786,4.44,3.411,4.787c1.313,0.175,3.236,0.349,4.286,0.349
			c0.7,0,1.05,0.263,1.05,0.696c0,0.61-0.612,0.87-1.749,0.87c-5.073,0-11.547-0.26-12.858-0.26c-1.662,0-7.173,0.26-10.672,0.26
			c-1.137,0-1.75-0.26-1.75-0.87c0-0.434,0.35-0.696,1.4-0.696c1.312,0,2.362-0.174,3.149-0.349
			c1.749-0.347,2.186-2.261,2.537-4.787c0.436-3.655,0.436-10.529,0.436-18.537V458.744z M238.776,465.62
			c0,0.958,0.176,1.306,0.788,1.567c1.837,0.607,4.461,0.87,6.648,0.87c3.498,0,4.636-0.348,6.21-1.479
			c2.624-1.916,5.161-5.92,5.161-13.056c0-12.358-8.222-15.928-13.383-15.928c-2.187,0-3.761,0.089-4.636,0.348
			c-0.613,0.175-0.788,0.523-0.788,1.218V465.62z"/>
		<linearGradient id="SVGID_3_" gradientUnits="userSpaceOnUse" x1="316.9358" y1="373.9425" x2="308.123" y2="545.7903">
			<stop  offset="0.2802" style="stop-color:#FFCB03"/>
			<stop  offset="0.6868" style="stop-color:#EF6527"/>
		</linearGradient>
		<path fill="url(#SVGID_3_)" d="M298,476.587c-0.439,0-0.612,0.174-0.788,0.696l-4.724,12.447
			c-0.874,2.175-1.313,4.265-1.313,5.309c0,1.565,0.788,2.697,3.5,2.697h1.313c1.049,0,1.311,0.174,1.311,0.696
			c0,0.695-0.525,0.87-1.487,0.87c-2.799,0-6.561-0.26-9.272-0.26c-0.963,0-5.774,0.26-10.322,0.26c-1.137,0-1.663-0.175-1.663-0.87
			c0-0.522,0.35-0.696,1.05-0.696c0.788,0,2.012-0.086,2.711-0.174c4.024-0.522,5.686-3.482,7.436-7.832l21.955-54.659
			c1.05-2.524,1.575-3.481,2.45-3.481c0.787,0,1.313,0.783,2.187,2.783c2.099,4.787,16.094,40.3,21.693,53.528
			c3.324,7.834,5.86,9.052,7.698,9.486c1.313,0.263,2.624,0.349,3.674,0.349c0.699,0,1.136,0.089,1.136,0.696
			c0,0.695-0.787,0.87-4.023,0.87c-3.148,0-9.534,0-16.532-0.175c-1.576-0.085-2.625-0.085-2.625-0.695
			c0-0.522,0.351-0.696,1.225-0.782c0.612-0.174,1.224-0.957,0.788-2.004l-6.999-18.45c-0.175-0.435-0.438-0.609-0.875-0.609H298z
			 M315.845,472.234c0.437,0,0.524-0.261,0.437-0.52l-7.872-21.498c-0.087-0.349-0.176-0.784-0.438-0.784
			c-0.263,0-0.437,0.435-0.524,0.784l-8.048,21.409c-0.088,0.349,0,0.609,0.35,0.609H315.845z"/>
		<linearGradient id="SVGID_4_" gradientUnits="userSpaceOnUse" x1="366.7708" y1="376.4988" x2="357.958" y2="548.3453">
			<stop  offset="0.2802" style="stop-color:#FFCB03"/>
			<stop  offset="0.6868" style="stop-color:#EF6527"/>
		</linearGradient>
		<path fill="url(#SVGID_4_)" d="M355.735,458.744c0-13.23,0-15.665-0.175-18.452c-0.175-2.959-1.049-4.439-2.974-4.873
			c-0.962-0.263-2.099-0.348-3.149-0.348c-0.874,0-1.4-0.175-1.4-0.873c0-0.519,0.699-0.694,2.099-0.694
			c3.325,0,8.836,0.261,11.372,0.261c2.188,0,7.348-0.261,10.672-0.261c1.137,0,1.837,0.176,1.837,0.694
			c0,0.698-0.525,0.873-1.4,0.873c-0.876,0-1.576,0.085-2.625,0.26c-2.361,0.436-3.061,1.915-3.236,4.961
			c-0.176,2.787-0.176,5.222-0.176,18.452v15.319c0,8.442,0,15.318,0.35,19.06c0.263,2.35,0.875,3.918,3.5,4.265
			c1.224,0.175,3.149,0.349,4.461,0.349c0.961,0,1.4,0.263,1.4,0.696c0,0.61-0.701,0.87-1.662,0.87
			c-5.774,0-11.285-0.26-13.647-0.26c-2.012,0-7.522,0.26-11.021,0.26c-1.137,0-1.751-0.26-1.751-0.87
			c0-0.434,0.352-0.696,1.4-0.696c1.313,0,2.362-0.174,3.15-0.349c1.75-0.347,2.274-1.826,2.537-4.351
			c0.437-3.655,0.437-10.531,0.437-18.974V458.744z"/>
		<linearGradient id="SVGID_5_" gradientUnits="userSpaceOnUse" x1="426.2756" y1="379.5489" x2="417.4628" y2="551.3981">
			<stop  offset="0.2802" style="stop-color:#FFCB03"/>
			<stop  offset="0.6868" style="stop-color:#EF6527"/>
		</linearGradient>
		<path fill="url(#SVGID_5_)" d="M400.174,487.468c0.174,6.787,1.311,9.051,3.062,9.659c1.486,0.523,3.149,0.609,4.548,0.609
			c0.961,0,1.487,0.174,1.487,0.696c0,0.695-0.788,0.87-2.012,0.87c-5.686,0-9.186-0.26-10.848-0.26c-0.787,0-4.898,0.26-9.446,0.26
			c-1.137,0-1.925-0.086-1.925-0.87c0-0.522,0.525-0.696,1.399-0.696c1.137,0,2.711-0.086,3.936-0.434
			c2.275-0.698,2.625-3.222,2.712-10.793l0.788-51.527c0-1.74,0.262-2.959,1.137-2.959c0.962,0,1.75,1.132,3.237,2.699
			c1.05,1.131,14.345,15.318,27.117,27.94c5.947,5.917,17.756,18.451,19.245,19.844h0.435l-0.874-39.08
			c-0.087-5.309-0.875-6.963-2.976-7.832c-1.311-0.522-3.41-0.522-4.636-0.522c-1.049,0-1.399-0.262-1.399-0.784
			c0-0.696,0.963-0.783,2.274-0.783c4.549,0,8.748,0.261,10.586,0.261c0.961,0,4.284-0.261,8.57-0.261
			c1.137,0,2.014,0.087,2.014,0.783c0,0.522-0.525,0.784-1.575,0.784c-0.875,0-1.575,0-2.626,0.26
			c-2.446,0.697-3.147,2.523-3.235,7.399l-0.962,54.92c0,1.915-0.352,2.698-1.138,2.698c-0.961,0-2.012-0.958-2.973-1.916
			c-5.513-5.221-16.708-16.625-25.805-25.587c-9.535-9.401-19.245-20.28-20.82-21.935h-0.263L400.174,487.468z"/>
		<linearGradient id="SVGID_6_" gradientUnits="userSpaceOnUse" x1="488.8304" y1="382.7571" x2="480.0175" y2="554.6063">
			<stop  offset="0.2802" style="stop-color:#FFCB03"/>
			<stop  offset="0.6868" style="stop-color:#EF6527"/>
		</linearGradient>
		<path fill="url(#SVGID_6_)" d="M478.115,458.744c0-13.23,0-15.665-0.175-18.452c-0.175-2.959-1.049-4.439-2.974-4.873
			c-0.962-0.263-2.101-0.348-3.149-0.348c-0.874,0-1.4-0.175-1.4-0.873c0-0.519,0.699-0.694,2.099-0.694
			c3.324,0,8.837,0.261,11.372,0.261c2.188,0,7.349-0.261,10.673-0.261c1.136,0,1.837,0.176,1.837,0.694
			c0,0.698-0.525,0.873-1.4,0.873s-1.574,0.085-2.626,0.26c-2.359,0.436-3.059,1.915-3.234,4.961
			c-0.176,2.787-0.176,5.222-0.176,18.452v15.319c0,8.442,0,15.318,0.351,19.06c0.262,2.35,0.874,3.918,3.498,4.265
			c1.226,0.175,3.15,0.349,4.462,0.349c0.961,0,1.399,0.263,1.399,0.696c0,0.61-0.7,0.87-1.662,0.87
			c-5.772,0-11.285-0.26-13.645-0.26c-2.012,0-7.524,0.26-11.022,0.26c-1.138,0-1.751-0.26-1.751-0.87
			c0-0.434,0.352-0.696,1.399-0.696c1.313,0,2.363-0.174,3.149-0.349c1.751-0.347,2.276-1.826,2.537-4.351
			c0.438-3.655,0.438-10.531,0.438-18.974V458.744z"/>
		<linearGradient id="SVGID_7_" gradientUnits="userSpaceOnUse" x1="548.3343" y1="385.808" x2="539.5214" y2="557.6573">
			<stop  offset="0.2802" style="stop-color:#FFCB03"/>
			<stop  offset="0.6868" style="stop-color:#EF6527"/>
		</linearGradient>
		<path fill="url(#SVGID_7_)" d="M522.554,487.468c0.174,6.787,1.313,9.051,3.063,9.659c1.486,0.523,3.148,0.609,4.549,0.609
			c0.961,0,1.486,0.174,1.486,0.696c0,0.695-0.788,0.87-2.012,0.87c-5.687,0-9.185-0.26-10.848-0.26c-0.787,0-4.898,0.26-9.446,0.26
			c-1.138,0-1.925-0.086-1.925-0.87c0-0.522,0.525-0.696,1.399-0.696c1.138,0,2.711-0.086,3.936-0.434
			c2.275-0.698,2.624-3.222,2.711-10.793l0.787-51.527c0-1.74,0.264-2.959,1.138-2.959c0.964,0,1.75,1.132,3.236,2.699
			c1.051,1.131,14.347,15.318,27.117,27.94c5.948,5.917,17.757,18.451,19.245,19.844h0.436l-0.875-39.08
			c-0.087-5.309-0.874-6.963-2.974-7.832c-1.312-0.522-3.411-0.522-4.635-0.522c-1.051,0-1.4-0.262-1.4-0.784
			c0-0.696,0.962-0.783,2.274-0.783c4.549,0,8.746,0.261,10.584,0.261c0.962,0,4.285-0.261,8.571-0.261
			c1.139,0,2.012,0.087,2.012,0.783c0,0.522-0.523,0.784-1.573,0.784c-0.876,0-1.576,0-2.624,0.26
			c-2.45,0.697-3.149,2.523-3.236,7.399l-0.964,54.92c0,1.915-0.349,2.698-1.137,2.698c-0.962,0-2.012-0.958-2.974-1.916
			c-5.51-5.221-16.708-16.625-25.804-25.587c-9.536-9.401-19.245-20.28-20.819-21.935h-0.263L522.554,487.468z"/>
		<linearGradient id="SVGID_8_" gradientUnits="userSpaceOnUse" x1="628.7823" y1="389.9346" x2="619.9696" y2="561.7806">
			<stop  offset="0.2802" style="stop-color:#FFCB03"/>
			<stop  offset="0.6868" style="stop-color:#EF6527"/>
		</linearGradient>
		<path fill="url(#SVGID_8_)" d="M652.716,493.472c0,2.351-0.087,2.525-1.138,3.133c-5.684,2.961-14.256,3.918-21.081,3.918
			c-21.431,0-40.411-10.097-40.411-34.119c0-13.924,7.261-23.673,15.221-28.461c8.398-5.047,16.183-5.658,23.53-5.658
			c6.035,0,13.733,1.045,15.484,1.396c1.837,0.348,4.896,0.869,6.908,0.956c1.051,0.087,1.226,0.435,1.226,1.043
			c0,0.958-0.613,3.396-0.613,14.274c0,1.395-0.264,1.828-0.961,1.828c-0.612,0-0.789-0.434-0.873-1.132
			c-0.265-2.001-0.703-4.786-2.976-7.224c-2.624-2.785-9.623-6.789-19.508-6.789c-4.81,0-11.196,0.349-17.319,5.397
			c-4.898,4.089-8.047,10.616-8.047,21.323c0,18.714,11.984,32.727,30.44,32.727c2.273,0,5.336,0,7.435-0.957
			c1.313-0.61,1.66-1.741,1.66-3.222v-8.182c0-4.351,0-7.659-0.084-10.271c-0.09-2.96-0.877-4.352-3.765-4.96
			c-0.697-0.176-2.186-0.261-3.408-0.261c-0.79,0-1.313-0.175-1.313-0.697c0-0.697,0.613-0.872,1.838-0.872
			c4.546,0,10.059,0.263,12.683,0.263c2.711,0,7.348-0.263,10.235-0.263c1.136,0,1.748,0.175,1.748,0.872
			c0,0.522-0.525,0.697-1.138,0.697c-0.7,0-1.313,0.085-2.36,0.261c-2.363,0.435-3.237,1.914-3.324,4.96
			c-0.09,2.611-0.09,6.093-0.09,10.444V493.472z"/>
	</g>
	<linearGradient id="SVGID_9_" gradientUnits="userSpaceOnUse" x1="501.8296" y1="43.3419" x2="508.8112" y2="586.7371">
		<stop  offset="0.1868" style="stop-color:#999999"/>
		<stop  offset="0.5055" style="stop-color:#4D4D4D"/>
	</linearGradient>
	<path fill="url(#SVGID_9_)" d="M589.25,149.064h-34.888V46.659h-8.407c-22.6,2.904-76.945,16.746-91.734,82.279
		c-0.343,1.813-0.823,4.736-0.988,7.59v0.009c0,0.003,0,0.005-0.001,0.008v12.478h-32.264v102.392h0.364v0.041h31.9v26.708
		l-0.047,0.088c0,0,0.001,0.009,0.001,0.012l-0.002,0.003c0,0,0.021,0.175,0.048,0.482v5.864c-0.288,3.999-1.257,9.305-3.989,14.243
		c-6.735,9.36-17,15.642-28.688,16.484v0.016v100.618v0.016c66.184-2.209,120.784-53.3,133.468-120.67
		c0.193-1.368,0.292-2.595,0.339-3.493v-0.007c0-0.003,0-0.006,0.001-0.009v-40.603h34.888V149.064z"/>
	<linearGradient id="SVGID_10_" gradientUnits="userSpaceOnUse" x1="349.1603" y1="42.5571" x2="294.8601" y2="560.7202">
		<stop  offset="0.2802" style="stop-color:#FFCB03"/>
		<stop  offset="0.6868" style="stop-color:#EF6527"/>
	</linearGradient>
	<path fill="url(#SVGID_10_)" d="M379.676,298.831c-2.734-4.94-3.702-10.249-3.988-14.249v-5.875
		c0.027-0.307,0.048-0.482,0.048-0.482l-0.048-0.088v-26.723h31.9v-0.248V149.023h-31.9v-12.519
		c-0.166-2.854-0.646-5.777-0.989-7.591c-14.789-65.533-69.135-79.375-91.735-82.279h-8.406v102.389H239.67v102.144h34.888v40.618
		c0.047,0.898,0.146,2.125,0.339,3.493c12.685,67.37,67.285,118.461,133.468,120.67V315.314
		C396.677,314.473,386.413,308.191,379.676,298.831z"/>
	<g>
		<path fill="#666666" d="M168.194,520.595l-6.766,0.184c-2.634,0.092-3.724,0.321-4.405,1.331
			c-0.454,0.688-0.681,1.239-0.772,1.607c-0.091,0.367-0.227,0.551-0.5,0.551c-0.318,0-0.409-0.229-0.409-0.734
			c0-0.734,0.863-4.911,0.954-5.278c0.136-0.597,0.272-0.872,0.545-0.872c0.363,0,0.817,0.459,1.953,0.551
			c1.317,0.138,3.042,0.229,4.541,0.229h17.982c1.453,0,2.452-0.138,3.133-0.229c0.681-0.138,1.044-0.229,1.226-0.229
			c0.318,0,0.363,0.275,0.363,0.964c0,0.964-0.136,4.131-0.136,5.324c-0.045,0.459-0.136,0.734-0.409,0.734
			c-0.363,0-0.454-0.229-0.499-0.918l-0.045-0.505c-0.091-1.193-1.317-2.478-5.358-2.57l-5.722-0.138v18.818
			c0,4.223,0,7.849,0.227,9.822c0.136,1.285,0.409,2.295,1.771,2.479c0.636,0.092,1.635,0.184,2.316,0.184
			c0.499,0,0.727,0.138,0.727,0.367c0,0.321-0.363,0.459-0.863,0.459c-2.997,0-5.858-0.138-7.129-0.138
			c-1.044,0-3.905,0.138-5.722,0.138c-0.59,0-0.908-0.138-0.908-0.459c0-0.229,0.182-0.367,0.727-0.367
			c0.681,0,1.226-0.092,1.635-0.184c0.908-0.184,1.181-1.193,1.317-2.524c0.227-1.928,0.227-5.554,0.227-9.776V520.595z"/>
		<path fill="#666666" d="M276.726,532.62c0.136,0,0.272-0.092,0.272-0.321v-0.964c0-6.977,0-8.262-0.091-9.73
			c-0.091-1.561-0.454-2.295-1.953-2.616c-0.363-0.092-1.135-0.138-1.771-0.138c-0.5,0-0.772-0.092-0.772-0.413
			c0-0.321,0.318-0.413,0.954-0.413c2.452,0,5.313,0.138,6.539,0.138c1.09,0,3.951-0.138,5.722-0.138
			c0.636,0,0.954,0.092,0.954,0.413c0,0.321-0.272,0.413-0.817,0.413c-0.363,0-0.772,0.046-1.317,0.138
			c-1.226,0.229-1.589,1.01-1.68,2.616c-0.091,1.469-0.091,2.754-0.091,9.73v8.078c0,4.223,0,7.849,0.227,9.822
			c0.136,1.285,0.409,2.295,1.771,2.479c0.636,0.092,1.635,0.184,2.316,0.184c0.499,0,0.726,0.138,0.726,0.367
			c0,0.321-0.363,0.459-0.908,0.459c-2.952,0-5.813-0.138-7.084-0.138c-1.044,0-3.905,0.138-5.676,0.138
			c-0.636,0-0.954-0.138-0.954-0.459c0-0.229,0.182-0.367,0.727-0.367c0.681,0,1.226-0.092,1.635-0.184
			c0.908-0.184,1.135-1.193,1.317-2.524c0.227-1.928,0.227-5.554,0.227-9.776v-4.039c0-0.184-0.136-0.275-0.272-0.275h-17.347
			c-0.136,0-0.273,0.046-0.273,0.275v4.039c0,4.223,0,7.849,0.227,9.822c0.136,1.285,0.409,2.295,1.771,2.479
			c0.636,0.092,1.635,0.184,2.316,0.184c0.5,0,0.727,0.138,0.727,0.367c0,0.321-0.363,0.459-0.908,0.459
			c-2.952,0-5.813-0.138-7.084-0.138c-1.044,0-3.905,0.138-5.722,0.138c-0.59,0-0.908-0.138-0.908-0.459
			c0-0.229,0.182-0.367,0.727-0.367c0.681,0,1.226-0.092,1.635-0.184c0.908-0.184,1.135-1.193,1.317-2.524
			c0.227-1.928,0.227-5.554,0.227-9.776v-8.078c0-6.977,0-8.262-0.091-9.73c-0.091-1.561-0.454-2.295-1.953-2.616
			c-0.363-0.092-1.135-0.138-1.771-0.138c-0.499,0-0.772-0.092-0.772-0.413c0-0.321,0.318-0.413,0.954-0.413
			c2.452,0,5.313,0.138,6.539,0.138c1.09,0,3.951-0.138,5.722-0.138c0.636,0,0.954,0.092,0.954,0.413
			c0,0.321-0.272,0.413-0.817,0.413c-0.363,0-0.772,0.046-1.317,0.138c-1.226,0.229-1.589,1.01-1.68,2.616
			c-0.091,1.469-0.091,2.754-0.091,9.73v0.964c0,0.23,0.136,0.321,0.273,0.321H276.726z"/>
		<path fill="#666666" d="M356.604,531.335c0-6.977,0-8.262-0.091-9.73c-0.091-1.561-0.454-2.295-1.953-2.616
			c-0.363-0.092-1.135-0.138-1.771-0.138c-0.5,0-0.772-0.092-0.772-0.413c0-0.321,0.318-0.413,0.999-0.413
			c1.226,0,2.543,0.046,3.678,0.046c1.181,0.046,2.225,0.092,2.861,0.092c1.453,0,10.49,0,11.353-0.046
			c0.863-0.092,1.589-0.184,1.953-0.275c0.227-0.046,0.5-0.184,0.727-0.184c0.227,0,0.272,0.184,0.272,0.413
			c0,0.321-0.227,0.872-0.363,2.983c-0.045,0.459-0.136,2.478-0.227,3.029c-0.045,0.229-0.136,0.505-0.454,0.505
			s-0.409-0.229-0.409-0.642c0-0.321-0.045-1.102-0.272-1.652c-0.318-0.826-0.772-1.377-3.042-1.652
			c-0.772-0.092-5.54-0.184-6.448-0.184c-0.227,0-0.318,0.138-0.318,0.459v11.612c0,0.321,0.045,0.505,0.318,0.505
			c0.999,0,6.221,0,7.266-0.092c1.09-0.092,1.771-0.229,2.18-0.689c0.318-0.367,0.5-0.597,0.727-0.597
			c0.182,0,0.318,0.092,0.318,0.367s-0.182,1.01-0.363,3.351c-0.045,0.918-0.182,2.754-0.182,3.075c0,0.367,0,0.872-0.409,0.872
			c-0.318,0-0.409-0.183-0.409-0.413c-0.045-0.459-0.045-1.056-0.182-1.652c-0.227-0.918-0.863-1.606-2.543-1.79
			c-0.863-0.092-5.358-0.138-6.448-0.138c-0.227,0-0.272,0.184-0.272,0.459v3.626c0,1.561-0.045,5.783,0,7.114
			c0.091,3.167,0.817,3.856,5.449,3.856c1.181,0,3.088,0,4.268-0.551c1.181-0.551,1.726-1.515,2.044-3.396
			c0.091-0.505,0.182-0.688,0.499-0.688c0.363,0,0.363,0.367,0.363,0.826c0,1.056-0.363,4.177-0.59,5.095
			c-0.318,1.193-0.727,1.193-2.452,1.193c-3.406,0-5.903-0.092-7.856-0.138c-1.953-0.092-3.36-0.138-4.723-0.138
			c-0.5,0-1.499,0-2.588,0.046c-1.044,0-2.225,0.092-3.133,0.092c-0.59,0-0.908-0.138-0.908-0.459c0-0.229,0.182-0.367,0.727-0.367
			c0.681,0,1.226-0.092,1.635-0.184c0.908-0.184,1.135-1.193,1.317-2.524c0.227-1.928,0.227-5.554,0.227-9.776V531.335z"/>
		<path fill="#666666" d="M439.389,535.374c0-7.849,5.131-17.992,18.754-17.992c11.307,0,18.346,6.655,18.346,17.166
			c0,10.511-7.266,18.818-18.8,18.818C444.656,553.366,439.389,543.498,439.389,535.374z M470.131,536.246
			c0-10.281-5.857-16.661-13.305-16.661c-5.223,0-11.172,2.938-11.172,14.366c0,9.547,5.223,17.12,13.941,17.12
			C462.775,551.071,470.131,549.511,470.131,536.246z"/>
		<path fill="#666666" d="M545.014,531.335c0-6.977,0-8.262-0.091-9.73c-0.091-1.561-0.454-2.295-1.952-2.616
			c-0.363-0.092-1.136-0.138-1.772-0.138c-0.5,0-0.771-0.092-0.771-0.413c0-0.321,0.317-0.413,0.998-0.413
			c2.407,0,5.268,0.138,6.222,0.138c1.544,0,4.995-0.138,6.403-0.138c2.86,0,5.902,0.275,8.355,1.974
			c1.271,0.872,3.088,3.213,3.088,6.288c0,3.397-1.408,6.518-5.994,10.281c4.041,5.141,7.174,9.226,9.853,12.071
			c2.543,2.662,4.404,2.983,5.086,3.121c0.5,0.092,0.908,0.138,1.271,0.138s0.545,0.138,0.545,0.367
			c0,0.367-0.318,0.459-0.863,0.459h-4.313c-2.543,0-3.679-0.229-4.858-0.872c-1.953-1.056-3.679-3.213-6.222-6.747
			c-1.816-2.524-3.905-5.646-4.495-6.334c-0.228-0.275-0.5-0.321-0.818-0.321l-3.95-0.092c-0.227,0-0.363,0.092-0.363,0.367v0.642
			c0,4.269,0,7.895,0.228,9.822c0.136,1.331,0.408,2.341,1.77,2.524c0.681,0.092,1.681,0.184,2.226,0.184
			c0.363,0,0.545,0.138,0.545,0.367c0,0.321-0.318,0.459-0.908,0.459c-2.635,0-5.994-0.138-6.676-0.138
			c-0.863,0-3.724,0.138-5.54,0.138c-0.591,0-0.908-0.138-0.908-0.459c0-0.229,0.182-0.367,0.727-0.367
			c0.681,0,1.226-0.092,1.635-0.184c0.908-0.184,1.136-1.193,1.317-2.524c0.227-1.928,0.227-5.554,0.227-9.776V531.335z
			 M550.372,534.961c0,0.505,0.091,0.689,0.409,0.826c0.953,0.321,2.315,0.459,3.451,0.459c1.816,0,2.406-0.184,3.224-0.78
			c1.362-1.01,2.679-3.121,2.679-6.885c0-6.518-4.268-8.399-6.947-8.399c-1.135,0-1.953,0.046-2.406,0.184
			c-0.318,0.092-0.409,0.275-0.409,0.643V534.961z"/>
		<path fill="#666666" d="M642.512,540.836c0-2.478-0.454-3.488-1.045-4.819c-0.317-0.734-6.402-10.832-7.992-13.219
			c-1.135-1.698-2.27-2.846-3.133-3.351c-0.59-0.321-1.362-0.597-1.907-0.597c-0.363,0-0.681-0.092-0.681-0.413
			c0-0.275,0.317-0.413,0.862-0.413c0.817,0,4.224,0.138,5.722,0.138c0.953,0,2.815-0.138,4.859-0.138
			c0.453,0,0.681,0.138,0.681,0.413c0,0.275-0.317,0.321-0.999,0.505c-0.408,0.092-0.636,0.459-0.636,0.826s0.228,0.918,0.545,1.561
			c0.636,1.377,6.993,12.438,7.72,13.724c0.454-1.102,6.176-11.199,6.812-12.622c0.454-1.01,0.636-1.79,0.636-2.387
			c0-0.459-0.182-0.964-0.953-1.147c-0.409-0.092-0.818-0.184-0.818-0.459c0-0.321,0.227-0.413,0.772-0.413
			c1.499,0,2.952,0.138,4.269,0.138c0.999,0,3.996-0.138,4.859-0.138c0.499,0,0.816,0.092,0.816,0.367
			c0,0.321-0.363,0.459-0.862,0.459c-0.454,0-1.317,0.184-1.998,0.551c-0.954,0.459-1.453,1.01-2.452,2.249
			c-1.498,1.836-7.856,12.622-8.674,14.596c-0.681,1.652-0.681,3.075-0.681,4.59v3.764c0,0.734,0,2.662,0.136,4.59
			c0.092,1.331,0.5,2.341,1.862,2.524c0.636,0.092,1.635,0.184,2.271,0.184c0.5,0,0.727,0.138,0.727,0.367
			c0,0.321-0.363,0.459-0.953,0.459c-2.861,0-5.723-0.138-6.948-0.138c-1.136,0-3.996,0.138-5.677,0.138
			c-0.635,0-0.998-0.092-0.998-0.459c0-0.229,0.227-0.367,0.727-0.367c0.635,0,1.18-0.092,1.589-0.184
			c0.908-0.184,1.317-1.193,1.407-2.524c0.137-1.928,0.137-3.855,0.137-4.59V540.836z"/>
	</g>
</g>
</svg>
